<?xml version="1.0" standalone="no"?>
<!DOCTYPE svg PUBLIC "-//W3C//DTD SVG 20010904//EN"
 "http://www.w3.org/TR/2001/REC-SVG-20010904/DTD/svg10.dtd">
<svg version="1.0" xmlns="http://www.w3.org/2000/svg"
 width="700.000000pt" height="700.000000pt" viewBox="0 0 700.000000 700.000000"
 preserveAspectRatio="xMidYMid meet">
<metadata>
Created by potrace 1.11, written by Peter Selinger 2001-2013
</metadata>
<g transform="translate(0.000000,700.000000) scale(0.100000,-0.100000)"
fill="#000000" stroke="none">
<path d="M4990 6177 c-3 -3 -30 -7 -60 -11 -30 -3 -67 -8 -82 -11 -16 -3 -38
-7 -50 -9 -57 -10 -157 -40 -224 -67 -236 -93 -418 -222 -614 -435 -218 -237
-358 -540 -406 -884 -9 -63 -12 -384 -4 -455 7 -59 6 -73 -9 -90 -27 -32 -65
-95 -94 -156 l-27 -57 -82 19 c-46 10 -117 26 -158 35 -41 9 -82 18 -90 20
-20 5 -249 54 -280 60 -14 2 -31 7 -39 10 -8 2 -30 7 -50 10 -20 3 -72 14
-116 23 -50 11 -93 15 -115 10 -19 -4 -55 -10 -79 -13 -58 -8 -147 -53 -350
-177 -41 -25 -329 -208 -401 -254 -36 -23 -105 -68 -155 -100 -49 -32 -112
-72 -140 -90 -27 -17 -165 -105 -305 -195 -248 -159 -294 -189 -583 -375 -148
-95 -195 -141 -247 -245 -66 -132 -74 -313 -17 -425 21 -43 170 -284 249 -403
26 -41 48 -75 48 -77 0 -3 17 -30 39 -62 21 -32 150 -226 285 -431 283 -427
286 -430 451 -497 53 -22 199 -31 261 -16 27 6 63 13 81 16 18 3 103 52 190
108 87 57 205 134 263 171 58 38 157 102 220 143 225 146 462 300 630 408 324
209 663 435 687 457 13 12 46 55 74 96 51 75 51 76 104 312 2 8 10 44 19 80 8
36 18 80 21 98 3 19 30 129 59 246 53 207 59 236 72 324 4 23 10 42 13 42 3 0
26 -21 51 -46 53 -55 184 -159 258 -204 28 -17 52 -35 52 -40 0 -20 -137 -130
-210 -169 -44 -23 -81 -45 -84 -49 -4 -8 -13 -59 -21 -128 -7 -51 -5 -51 70
-25 30 11 55 18 55 16 0 -2 30 11 68 30 80 41 182 123 243 197 l44 54 104 -32
c57 -18 123 -36 147 -40 59 -9 64 -21 12 -29 -55 -8 -139 -48 -208 -99 -57
-42 -211 -190 -248 -239 l-21 -29 81 -121 c44 -67 84 -126 89 -131 5 -5 27 8
53 32 38 35 132 88 176 97 8 2 31 9 50 15 98 29 279 32 400 5 14 -4 35 -8 48
-11 59 -12 200 -61 329 -115 263 -109 418 -150 578 -154 282 -6 530 128 699
379 39 58 44 35 -56 246 -35 74 -82 172 -103 217 l-39 83 -43 -45 c-53 -55
-190 -126 -294 -151 -54 -14 -236 -12 -309 2 -41 9 -133 26 -204 39 -70 13
-130 26 -132 28 -3 2 37 19 88 37 401 144 723 453 898 863 37 88 81 221 94
287 2 14 10 50 16 80 6 30 14 82 17 115 10 80 10 376 0 445 -4 30 -9 68 -12
84 -9 68 -40 188 -72 280 -108 310 -319 590 -608 804 -63 46 -207 124 -320
172 -49 21 -192 60 -270 74 -16 3 -41 9 -55 12 -29 7 -394 17 -400 11z m283
-741 c149 -15 308 -89 404 -188 140 -142 216 -300 259 -533 10 -54 11 -317 1
-383 -48 -340 -226 -596 -473 -685 -104 -37 -177 -50 -307 -52 -129 -3 -261
18 -353 55 l-51 21 0 57 c0 52 -10 176 -17 212 -1 8 -6 33 -10 55 -14 73 -75
219 -126 298 -62 96 -131 164 -211 207 l-61 32 6 82 c3 44 8 92 11 106 22 110
31 144 55 210 112 305 330 480 630 507 36 3 66 6 67 7 4 3 113 -2 176 -8z
m-809 -1241 c59 -92 100 -216 110 -339 5 -52 4 -57 -10 -45 -27 22 -94 127
-129 202 -32 68 -85 249 -85 292 0 16 7 12 41 -20 22 -22 55 -62 73 -90z
m-844 -230 c0 -8 5 -26 11 -42 6 -15 11 -30 12 -33 0 -3 15 -40 33 -83 l31
-78 -18 -72 c-11 -40 -22 -83 -24 -97 -22 -119 -76 -304 -97 -329 -54 -68
-165 -117 -236 -106 -113 17 -179 65 -223 160 -28 59 -29 119 -6 195 23 76 82
136 168 168 47 19 49 6 20 -141 l-27 -137 26 -32 c22 -26 35 -32 65 -32 52 0
68 24 89 131 10 48 21 102 26 118 13 45 31 116 36 138 9 47 57 206 76 249 19
44 38 56 38 23z m-1340 -890 c59 -19 137 -68 172 -107 l26 -29 42 21 c62 32
105 20 136 -35 14 -26 1 -85 -23 -103 -10 -7 -26 -19 -35 -26 -15 -11 -15 -16
2 -66 27 -76 26 -197 -1 -277 -46 -137 -155 -200 -221 -127 -34 38 -33 70 4
121 45 62 57 100 53 161 -8 113 -81 223 -178 272 -66 33 -104 37 -145 16 -84
-43 -88 -114 -18 -319 98 -285 95 -416 -10 -520 -127 -126 -336 -122 -481 9
-49 44 -60 50 -73 39 -29 -26 -90 -35 -121 -19 -71 36 -63 127 15 171 18 10
18 12 0 64 -12 37 -18 83 -17 144 0 78 4 99 30 155 51 112 120 162 182 133 35
-18 48 -36 51 -73 4 -41 1 -47 -28 -77 -131 -131 8 -435 209 -457 69 -7 121
33 132 100 7 43 -9 125 -40 209 -80 220 -97 344 -60 452 19 55 78 122 131 151
76 39 179 46 266 17z"/>
</g>
</svg>
